<svg width="17" height="15" viewBox="0 0 17 15" fill="none" xmlns="http://www.w3.org/2000/svg">
<path d="M6.00392 0.192383L4.53566 1.79704H1.99228C1.10971 1.79704 0.387619 2.51913 0.387619 3.4017V13.0296C0.387619 13.9122 1.10971 14.6343 1.99228 14.6343H14.8295C15.7121 14.6343 16.4342 13.9122 16.4342 13.0296V3.4017C16.4342 2.51913 15.7121 1.79704 14.8295 1.79704H12.2861L10.8179 0.192383H6.00392ZM8.4109 12.2273C6.19647 12.2273 4.39926 10.4301 4.39926 8.21566C4.39926 6.00124 6.19647 4.20402 8.4109 4.20402C10.6253 4.20402 12.4225 6.00124 12.4225 8.21566C12.4225 10.4301 10.6253 12.2273 8.4109 12.2273Z" fill="#652EAD"/>
</svg>
