<svg width="20" height="20" viewBox="0 0 20 20" fill="none" xmlns="http://www.w3.org/2000/svg">
<g clip-path="url(#clip0_111_372)">
<path d="M1.87008 2.5C0.837641 2.5 0 3.33984 0 4.375C0 4.96484 0.276616 5.51953 0.748033 5.875L9.22574 12.25C9.66989 12.582 10.2777 12.582 10.7218 12.25L19.1995 5.875C19.6709 5.51953 19.9475 4.96484 19.9475 4.375C19.9475 3.33984 19.1099 2.5 18.0775 2.5H1.87008ZM0 6.875V15C0 16.3789 1.11815 17.5 2.49344 17.5H17.4541C18.8294 17.5 19.9475 16.3789 19.9475 15V6.875L11.4698 13.25C10.5816 13.918 9.366 13.918 8.47771 13.25L0 6.875Z" fill="#FFB84C"/>
</g>
<defs>
<clipPath id="clip0_111_372">
<rect width="19.9475" height="20" fill="white"/>
</clipPath>
</defs>
</svg>
