<svg width="22" height="20" viewBox="0 0 22 20" fill="none" xmlns="http://www.w3.org/2000/svg">
<g clip-path="url(#clip0_111_389)">
<path d="M10.9908 1.25003C7.90727 1.25003 5.43816 2.68753 3.64071 4.39847C1.85471 6.09378 0.660231 8.12503 0.0954284 9.51956C-0.0305074 9.82815 -0.0305074 10.1719 0.0954284 10.4805C0.660231 11.875 1.85471 13.9063 3.64071 15.6016C5.43816 17.3125 7.90727 18.75 10.9908 18.75C14.0743 18.75 16.5434 17.3125 18.3409 15.6016C20.1269 13.9024 21.3213 11.875 21.89 10.4805C22.0159 10.1719 22.0159 9.82815 21.89 9.51956C21.3213 8.12503 20.1269 6.09378 18.3409 4.39847C16.5434 2.68753 14.0743 1.25003 10.9908 1.25003ZM5.4954 10C5.4954 8.50819 6.07438 7.07745 7.10496 6.02255C8.13555 4.96766 9.53332 4.37503 10.9908 4.37503C12.4483 4.37503 13.846 4.96766 14.8766 6.02255C15.9072 7.07745 16.4862 8.50819 16.4862 10C16.4862 11.4919 15.9072 12.9226 14.8766 13.9775C13.846 15.0324 12.4483 15.625 10.9908 15.625C9.53332 15.625 8.13555 15.0324 7.10496 13.9775C6.07438 12.9226 5.4954 11.4919 5.4954 10ZM10.9908 7.50003C10.9908 8.87894 9.89552 10 8.54839 10C8.27744 10 8.01794 9.95315 7.7737 9.87112C7.5638 9.80081 7.31957 9.93362 7.3272 10.1602C7.33865 10.4297 7.37681 10.6992 7.44932 10.9688C7.97214 12.9688 9.9833 14.1563 11.9372 13.6211C13.8911 13.086 15.0513 11.0274 14.5284 9.02737C14.1048 7.40628 12.7043 6.31644 11.1473 6.25003C10.9259 6.24222 10.7962 6.48831 10.8649 6.70706C10.945 6.95706 10.9908 7.22269 10.9908 7.50003Z" fill="#FFB84C"/>
</g>
<defs>
<clipPath id="clip0_111_389">
<rect width="21.9815" height="20" fill="white"/>
</clipPath>
</defs>
</svg>
