<svg width="22" height="20" viewBox="0 0 22 20" fill="none" xmlns="http://www.w3.org/2000/svg">
<g clip-path="url(#clip0_111_385)">
<path d="M4.23909 20H17.2838C17.8241 20 18.2621 19.593 18.2621 19.0909V8.78788C18.2621 8.28582 17.8241 7.87879 17.2838 7.87879H16.3054V5.15152C16.3054 2.31097 13.8184 2.86102e-06 10.7614 2.86102e-06C7.70448 2.86102e-06 5.21745 2.31097 5.21745 5.15152V7.87879H4.23909C3.69878 7.87879 3.26074 8.28582 3.26074 8.78788V19.0909C3.26074 19.593 3.69878 20 4.23909 20ZM11.7398 14.2416V15.4545C11.7398 15.9566 11.3018 16.3636 10.7614 16.3636C10.2211 16.3636 9.78309 15.9566 9.78309 15.4545V14.2416C9.38731 13.9649 9.13085 13.525 9.13085 13.0303C9.13085 12.1949 9.86233 11.5152 10.7614 11.5152C11.6605 11.5152 12.392 12.1949 12.392 13.0303C12.392 13.525 12.1356 13.9649 11.7398 14.2416ZM7.17415 5.15152C7.17415 3.31352 8.78341 1.81818 10.7614 1.81818C12.7395 1.81818 14.3487 3.31352 14.3487 5.15152V7.87879H7.17415V5.15152Z" fill="#FFB84C"/>
</g>
<defs>
<clipPath id="clip0_111_385">
<rect width="21.5237" height="20" fill="white"/>
</clipPath>
</defs>
</svg>
