<svg width="180" height="39" viewBox="0 0 180 39" fill="none" xmlns="http://www.w3.org/2000/svg">
<path d="M13.1646 3.13458C13.6144 5.25373 13.8393 6.89137 13.8393 7.72606C13.8393 9.29887 13.2295 10.295 12.2665 10.295C11.3352 10.295 10.7254 9.30025 10.7254 7.72606C10.7254 6.89137 10.9503 5.25373 11.4001 3.13458H0C0.962997 8.59249 0.962997 15.0148 0 22.3987H11.3987C10.9807 19.3483 10.6923 17.1008 10.6923 15.9778C10.6923 14.405 11.3021 13.4089 12.2651 13.4089C13.2281 13.4089 13.871 14.4036 13.871 15.9778C13.871 17.1022 13.6461 19.3496 13.1646 22.3987H24.5633C23.6003 15.0134 23.6003 8.59249 24.5633 3.13458H13.1646Z" fill="#FFB84C"/>
<path d="M39.1131 5.20825L39.1448 5.4966C39.658 8.51528 39.8195 11.4043 39.8195 13.2668C39.8195 14.9679 38.9199 15.4825 38.2466 15.4825C37.5085 15.4825 36.7373 14.9693 36.7373 13.5883C36.7373 11.8871 36.9622 8.96505 37.4754 5.20825H26.3982C27.0728 8.38697 26.6548 10.9876 26.6548 15.001C26.6548 19.0144 28.4525 21.7434 32.2741 21.7434C35.1962 21.7434 36.9939 20.4589 37.9887 18.5012C38.2453 17.988 38.6302 17.6665 39.0165 17.6665C39.4345 17.6665 39.7229 18.0514 39.7229 18.6295C39.7229 21.1653 36.5759 23.9274 32.3707 23.9274C31.3429 23.9274 30.3481 23.7991 29.8666 23.6708V23.8639C30.8614 25.7264 34.3298 27.3641 38.0535 27.3641C44.8276 27.3641 50.0303 24.1854 50.0303 17.0898C50.0303 13.0447 49.4204 9.47966 50.1903 5.20963H39.1131V5.20825Z" fill="#FFB84C"/>
<path d="M70.4243 7.30941C67.1821 7.30941 65.6079 9.39682 64.5483 11.3546C64.26 11.8678 63.9385 12.1892 63.5536 12.1892C63.1356 12.1892 62.8472 11.8043 62.8472 11.2262C62.8472 8.94706 63.0721 5.19026 63.297 3.13458H52.0266C52.7647 10.1018 52.893 18.0003 52.3481 24.6461H62.879C62.6858 23.3934 62.5258 21.6274 62.5258 20.8576C62.5258 20.4078 62.7507 20.1195 63.1356 20.1195C63.5205 20.1195 63.7771 20.4078 64.002 20.9224C64.8684 22.8815 66.891 25.289 70.456 25.289C75.2075 25.289 78.2262 21.564 78.2262 15.946C78.2262 10.6482 75.1758 7.30941 70.4243 7.30941ZM64.8353 18.686C63.6198 18.686 62.8238 17.89 62.8238 16.6745C62.8238 14.8727 64.2903 13.1964 66.1349 13.1964C67.3918 13.1964 68.2306 14.0352 68.2306 15.2921C68.2306 17.0525 66.7213 18.686 64.8353 18.686Z" fill="#FFB84C"/>
<path d="M114.492 15.946C114.492 21.5654 117.51 25.289 122.262 25.289C125.826 25.289 127.848 22.8815 128.716 20.9224C128.941 20.4092 129.197 20.1195 129.582 20.1195C129.967 20.1195 130.192 20.4078 130.192 20.8576C130.192 21.6288 130.032 23.3948 129.839 24.6461H140.37C139.823 18.0003 139.952 10.1018 140.691 3.13458H129.421C129.646 5.18888 129.871 8.94568 129.871 11.2262C129.871 11.8043 129.582 12.1892 129.164 12.1892C128.779 12.1892 128.458 11.8678 128.17 11.3546C127.11 9.39544 125.537 7.30941 122.294 7.30941C117.542 7.30941 114.492 10.6482 114.492 15.946ZM124.487 15.2921C124.487 14.0352 125.326 13.1964 126.583 13.1964C128.428 13.1964 129.894 14.8727 129.894 16.6745C129.894 17.89 129.098 18.686 127.883 18.686C125.997 18.686 124.487 17.0525 124.487 15.2921Z" fill="#FFB84C"/>
<path d="M92.3913 10.8896C92.2313 11.4677 91.9416 11.7243 91.5566 11.7243C91.1386 11.7243 90.8502 11.3394 90.8502 10.7613C90.8502 10.0866 91.0751 8.5773 91.3 7.486H80.0627C80.8009 13.0405 80.9292 18.6281 80.3842 24.1825H91.4614C90.9151 21.0356 90.755 18.05 90.755 15.9957C90.755 15.0644 91.3331 14.5512 92.0078 14.5512C94.0303 14.5512 96.4061 16.4455 99.7462 16.4455V6.84308C94.8954 6.84308 93.1612 7.87092 92.3913 10.8896Z" fill="#FFB84C"/>
<path d="M107.294 5.61932C109.51 5.61932 110.889 4.43144 110.889 2.9221C110.891 1.12442 109.381 0 107.294 0C105.24 0 103.666 1.12442 103.666 2.9221C103.667 4.43144 105.111 5.61932 107.294 5.61932Z" fill="#FFB84C"/>
<path d="M101.58 7.93719C102.221 13.4917 102.221 19.0793 101.58 24.6337H112.657C112.015 19.0793 112.015 13.4917 112.657 7.93719H101.58Z" fill="#FFB84C"/>
<path d="M142.528 3.26288C143.169 8.94567 143.169 18.1286 142.528 24.7744H153.605C152.963 18.1286 152.963 8.94567 153.605 3.26288H142.528Z" fill="#FFB84C"/>
<path d="M179.232 5.20825H168.155L168.187 5.4966C168.7 8.51528 168.861 11.4043 168.861 13.2668C168.861 14.9679 167.962 15.4825 167.288 15.4825C166.55 15.4825 165.779 14.9693 165.779 13.5883C165.779 11.8871 166.004 8.96505 166.517 5.20825H155.44C156.115 8.38697 155.697 10.9876 155.697 15.001C155.697 19.0144 157.494 21.7434 161.316 21.7434C164.238 21.7434 166.036 20.4589 167.03 18.5012C167.287 17.988 167.672 17.6665 168.058 17.6665C168.476 17.6665 168.765 18.0514 168.765 18.6295C168.765 21.1653 165.618 23.9274 161.412 23.9274C160.385 23.9274 159.39 23.7991 158.908 23.6708V23.8639C159.903 25.7264 163.372 27.3641 167.095 27.3641C173.869 27.3641 179.072 24.1854 179.072 17.0898C179.072 13.0419 178.462 9.47828 179.232 5.20825Z" fill="#FFB84C"/>
<path d="M1.29387 38.9973V37.9335H4.54295C4.7637 37.9335 4.87407 37.8149 4.87407 37.579V35.784H4.68368C4.61332 35.9413 4.50433 36.0931 4.35946 36.2393C4.21322 36.3856 4.01869 36.5056 3.77449 36.5994C3.53029 36.6932 3.22263 36.7415 2.85288 36.7415C2.41139 36.7415 2.01819 36.6436 1.6719 36.4463C1.32561 36.249 1.05382 35.9703 0.856525 35.6075C0.659235 35.246 0.561279 34.8155 0.561279 34.3202V30.8118H1.77813V34.225C1.77813 34.7286 1.90368 35.1011 2.15616 35.3412C2.40863 35.5812 2.75907 35.7013 3.20745 35.7013C3.70413 35.7013 4.10285 35.5357 4.40637 35.2046C4.70989 34.8735 4.86166 34.3934 4.86166 33.7629V30.809H6.07851V37.8259C6.07851 38.1805 5.97365 38.4633 5.76533 38.6772C5.557 38.8896 5.27141 38.9959 4.90856 38.9959H1.29387V38.9973Z" fill="white"/>
<path d="M10.6013 36.8008C10.0177 36.8008 9.50033 36.6808 9.04781 36.4407C8.59528 36.2007 8.23933 35.8558 7.97858 35.4074C7.7192 34.959 7.58813 34.4265 7.58813 33.8125V33.6345C7.58813 33.0206 7.71782 32.4908 7.97858 32.0452C8.23795 31.6009 8.59528 31.256 9.04781 31.0118C9.50033 30.7676 10.0177 30.6462 10.6013 30.6462C11.1835 30.6462 11.7036 30.769 12.1603 31.0118C12.617 31.256 12.9757 31.6009 13.2351 32.0452C13.4944 32.4908 13.6255 33.0192 13.6255 33.6345V33.8125C13.6255 34.4265 13.4958 34.9576 13.2351 35.4074C12.9757 35.8558 12.617 36.2007 12.1603 36.4407C11.705 36.6808 11.1849 36.8008 10.6013 36.8008ZM10.6013 35.7137C11.1366 35.7137 11.5712 35.5426 11.9064 35.2004C12.2417 34.8583 12.4086 34.3837 12.4086 33.7766V33.6704C12.4086 33.0647 12.2431 32.5901 11.912 32.2466C11.5808 31.9045 11.1435 31.7334 10.6013 31.7334C10.0743 31.7334 9.64244 31.9045 9.30718 32.2466C8.97193 32.5888 8.80499 33.0634 8.80499 33.6704V33.7766C8.80499 34.3837 8.97193 34.8569 9.30718 35.2004C9.64244 35.5426 10.0743 35.7137 10.6013 35.7137Z" fill="white"/>
<path d="M17.3697 36.7415C16.9282 36.7415 16.535 36.6436 16.1887 36.4463C15.8425 36.249 15.5707 35.9703 15.3734 35.6074C15.1761 35.246 15.0781 34.8128 15.0781 34.3078V30.8118H16.295V34.225C16.295 34.7286 16.4205 35.1011 16.673 35.3412C16.9255 35.5812 17.2759 35.7013 17.7243 35.7013C18.221 35.7013 18.6197 35.5343 18.9232 35.1991C19.2267 34.8652 19.3785 34.3823 19.3785 33.7518V30.8104H20.5954V36.6339H19.402V35.7592H19.2129C19.1026 35.9951 18.9053 36.2186 18.6224 36.427C18.3396 36.6367 17.9216 36.7415 17.3697 36.7415Z" fill="white"/>
<path d="M22.3901 36.6353V30.8118H23.5835V31.4974H23.7725C23.8677 31.2532 24.0181 31.0739 24.2278 30.9594C24.4362 30.8449 24.6942 30.7883 25.0018 30.7883H25.6985V31.8865H24.9549C24.5617 31.8865 24.2389 31.9955 23.9864 32.2107C23.7339 32.4273 23.6084 32.7598 23.6084 33.2096V36.6353H22.3901Z" fill="white"/>
<path d="M29.9744 36.6353V28.367H31.1912V31.6395H31.3802C31.4589 31.4905 31.5706 31.3443 31.7169 31.2022C31.8631 31.0601 32.0549 30.9442 32.2963 30.8531C32.5364 30.7621 32.8413 30.7166 33.2124 30.7166C33.6539 30.7166 34.0457 30.8145 34.3879 31.0118C34.73 31.2091 35.0004 31.4864 35.1977 31.8451C35.395 32.2038 35.493 32.6343 35.493 33.1392V36.6353H34.2761V33.233C34.2761 32.7295 34.1506 32.357 33.8981 32.1169C33.6456 31.8768 33.2993 31.7568 32.8592 31.7568C32.3556 31.7568 31.9514 31.9224 31.6479 32.2535C31.3444 32.5846 31.1926 33.0647 31.1926 33.6952V36.6366H29.9744V36.6353Z" fill="white"/>
<path d="M37.8176 38.9973V37.9335H41.0667C41.2875 37.9335 41.3978 37.8149 41.3978 37.579V35.784H41.2088C41.1385 35.9413 41.0295 36.0931 40.8846 36.2393C40.7384 36.3856 40.5438 36.5056 40.2996 36.5994C40.0554 36.6932 39.7478 36.7415 39.378 36.7415C38.9365 36.7415 38.5433 36.6436 38.197 36.4463C37.8508 36.249 37.579 35.9703 37.3817 35.6075C37.1844 35.246 37.0864 34.8155 37.0864 34.3202V30.8118H38.3033V34.225C38.3033 34.7286 38.4288 35.1011 38.6813 35.3412C38.9338 35.5812 39.2842 35.7013 39.7326 35.7013C40.2293 35.7013 40.628 35.5357 40.9315 35.2046C41.235 34.8735 41.3868 34.3934 41.3868 33.7629V30.809H42.6037V37.8259C42.6037 38.1805 42.4988 38.4633 42.2905 38.6772C42.0821 38.8896 41.7966 38.9959 41.4337 38.9959H37.8176V38.9973Z" fill="white"/>
<path d="M47.7636 36.8009C47.1965 36.8009 46.7619 36.6988 46.4584 36.4932C46.1549 36.289 45.9286 36.06 45.7796 35.8075H45.5906V36.6339H44.3972V28.3657H45.6141V31.6023H45.8031C45.8969 31.445 46.0238 31.2933 46.1811 31.147C46.3384 31.0008 46.5467 30.8808 46.8075 30.7869C47.0668 30.6918 47.3869 30.6448 47.7649 30.6448C48.2533 30.6448 48.7017 30.7635 49.1115 30.9994C49.5212 31.2353 49.8482 31.5789 50.0924 32.0273C50.3366 32.4756 50.458 33.0123 50.458 33.6332V33.8111C50.458 34.4416 50.3339 34.9783 50.0855 35.424C49.8372 35.8696 49.5102 36.209 49.1046 36.4463C48.699 36.6822 48.252 36.8009 47.7636 36.8009ZM47.4104 35.7371C47.9374 35.7371 48.3734 35.5674 48.7155 35.2294C49.0577 34.8914 49.2288 34.4072 49.2288 33.7767V33.6704C49.2288 33.0482 49.0591 32.5681 48.721 32.2287C48.3817 31.8907 47.9457 31.721 47.4104 31.721C46.8902 31.721 46.4598 31.8907 46.1163 32.2287C45.7741 32.5681 45.603 33.0482 45.603 33.6704V33.7767C45.603 34.4072 45.7741 34.8914 46.1163 35.2294C46.4584 35.5688 46.8902 35.7371 47.4104 35.7371Z" fill="white"/>
<path d="M51.9688 36.6353V30.8118H53.1621V31.4974H53.3512C53.4464 31.2532 53.5967 31.0739 53.8064 30.9594C54.0148 30.8449 54.2728 30.7883 54.5804 30.7883H55.2772V31.8865H54.5335C54.1403 31.8865 53.8175 31.9955 53.565 32.2107C53.3125 32.4273 53.187 32.7598 53.187 33.2096V36.6353H51.9688Z" fill="white"/>
<path d="M57.1546 30.0198C56.9187 30.0198 56.72 29.9426 56.5586 29.7894C56.3972 29.6363 56.3171 29.4376 56.3171 29.1934C56.3171 28.9492 56.3972 28.7505 56.5586 28.5974C56.72 28.4443 56.9187 28.367 57.1546 28.367C57.3988 28.367 57.5988 28.4443 57.7575 28.5974C57.9148 28.7505 57.9934 28.9492 57.9934 29.1934C57.9934 29.4376 57.9148 29.6363 57.7575 29.7894C57.6002 29.9439 57.3988 30.0198 57.1546 30.0198ZM56.5406 36.6353V30.8117H57.7575V36.6353H56.5406Z" fill="white"/>
<path d="M61.9738 36.8009C61.4937 36.8009 61.0481 36.6822 60.6397 36.4463C60.23 36.2104 59.9016 35.8696 59.6533 35.424C59.4049 34.9797 59.2808 34.4416 59.2808 33.8111V33.6332C59.2808 33.0109 59.4022 32.4756 59.6464 32.0273C59.8906 31.5789 60.2175 31.2353 60.6273 30.9994C61.0371 30.7635 61.4854 30.6448 61.9738 30.6448C62.3519 30.6448 62.6692 30.6918 62.9244 30.7869C63.1797 30.8808 63.3907 31.0022 63.5563 31.147C63.7219 31.2933 63.8474 31.445 63.9343 31.6023H64.1233V28.3657H65.3402V36.6339H64.1468V35.8075H63.9578C63.8088 36.06 63.5811 36.2876 63.279 36.4932C62.9768 36.6988 62.5423 36.8009 61.9738 36.8009ZM62.3174 35.7371C62.8444 35.7371 63.2804 35.5674 63.6225 35.2294C63.9647 34.8914 64.1358 34.4072 64.1358 33.7767V33.6704C64.1358 33.0482 63.9661 32.5681 63.628 32.2287C63.2887 31.8907 62.8527 31.721 62.3174 31.721C61.7972 31.721 61.3668 31.8907 61.0233 32.2287C60.6811 32.5681 60.51 33.0482 60.51 33.6704V33.7767C60.51 34.4072 60.6811 34.8914 61.0233 35.2294C61.3668 35.5688 61.7972 35.7371 62.3174 35.7371Z" fill="white"/>
<path d="M72.8181 36.8008C72.2276 36.8008 71.7116 36.6766 71.2701 36.4283C70.8286 36.18 70.4851 35.8295 70.2368 35.377C69.9884 34.9245 69.8643 34.3988 69.8643 33.8001V33.658C69.8643 33.0509 69.9857 32.5225 70.2299 32.0686C70.4741 31.6161 70.8148 31.2657 71.2522 31.0173C71.6895 30.769 72.1945 30.6448 72.7698 30.6448C73.3286 30.6448 73.8197 30.769 74.2405 31.0173C74.6613 31.2657 74.991 31.6106 75.227 32.0507C75.4629 32.4922 75.5815 33.0082 75.5815 33.5986V34.0594H71.1046C71.1197 34.5713 71.2922 34.9797 71.6178 35.2818C71.9448 35.5853 72.3518 35.7371 72.8402 35.7371C73.2968 35.7371 73.6417 35.635 73.8735 35.4294C74.1053 35.2253 74.2847 34.988 74.4116 34.7203L75.416 35.2404C75.3056 35.4612 75.1456 35.693 74.9372 35.9372C74.7289 36.1814 74.4544 36.3855 74.1163 36.5511C73.7797 36.718 73.3465 36.8008 72.8181 36.8008ZM71.117 33.1268H74.3412C74.3095 32.6853 74.1522 32.3418 73.8694 32.0934C73.5866 31.8451 73.2154 31.7209 72.7588 31.7209C72.3021 31.7209 71.9296 31.8451 71.6426 32.0934C71.3557 32.3418 71.1804 32.6867 71.117 33.1268Z" fill="white"/>
<path d="M78.1932 36.6353L76.2327 30.8118H77.5199L79.0678 35.7372H79.2569L80.8048 30.8118H82.092L80.1316 36.6353H78.1932Z" fill="white"/>
<path d="M85.7412 36.8008C85.1507 36.8008 84.6347 36.6766 84.1932 36.4283C83.7517 36.18 83.4082 35.8295 83.1599 35.377C82.9115 34.9245 82.7874 34.3988 82.7874 33.8001V33.658C82.7874 33.0509 82.9088 32.5225 83.153 32.0686C83.3972 31.6161 83.7379 31.2657 84.1753 31.0173C84.6126 30.769 85.1176 30.6448 85.6929 30.6448C86.2517 30.6448 86.7428 30.769 87.1636 31.0173C87.5844 31.2657 87.9141 31.6106 88.1501 32.0507C88.386 32.4922 88.5046 33.0082 88.5046 33.5986V34.0594H84.0277C84.0428 34.5713 84.2153 34.9797 84.5409 35.2818C84.8679 35.5853 85.2749 35.7371 85.7633 35.7371C86.2199 35.7371 86.5648 35.635 86.7966 35.4294C87.0284 35.2253 87.2078 34.988 87.3347 34.7203L88.3391 35.2404C88.2287 35.4612 88.0687 35.693 87.8603 35.9372C87.652 36.1814 87.3775 36.3855 87.0394 36.5511C86.7028 36.718 86.2682 36.8008 85.7412 36.8008ZM84.0401 33.1268H87.2643C87.2326 32.6853 87.0753 32.3418 86.7925 32.0934C86.5097 31.8451 86.1385 31.7209 85.6819 31.7209C85.2252 31.7209 84.8527 31.8451 84.5657 32.0934C84.2788 32.3418 84.1035 32.6867 84.0401 33.1268Z" fill="white"/>
<path d="M89.97 36.6353V30.8118H91.1634V31.6865H91.3524C91.4628 31.4506 91.66 31.2298 91.9429 31.0256C92.2257 30.8214 92.6479 30.718 93.2066 30.718C93.6481 30.718 94.0399 30.8159 94.3821 31.0132C94.7242 31.2105 94.9947 31.4878 95.192 31.8465C95.3892 32.2052 95.4872 32.6357 95.4872 33.1406V36.6367H94.2703V33.2344C94.2703 32.7309 94.1448 32.3584 93.8923 32.1183C93.6398 31.8782 93.2936 31.7582 92.8521 31.7582C92.3485 31.7582 91.9443 31.9238 91.6407 32.2549C91.3372 32.586 91.1854 33.0661 91.1854 33.6966V36.638H89.97V36.6353Z" fill="white"/>
<path d="M99.2549 36.6353C98.9003 36.6353 98.6189 36.5291 98.4105 36.3166C98.2022 36.1041 98.0974 35.8199 98.0974 35.4653V31.8382H96.4915V30.8104H98.0974V28.8844H99.3142V30.8104H101.051V31.8382H99.3142V35.2515C99.3142 35.4874 99.4246 35.6061 99.6453 35.6061H100.862V36.6339H99.2549V36.6353Z" fill="white"/>
<path d="M105.492 38.9972V30.8118H106.686V31.6506H106.875C107.024 31.3912 107.251 31.1581 107.553 30.9539C107.857 30.7497 108.291 30.6462 108.859 30.6462C109.347 30.6462 109.794 30.7649 110.2 31.0008C110.605 31.2367 110.932 31.5775 111.18 32.0231C111.429 32.4687 111.553 33.0054 111.553 33.6359V33.8139C111.553 34.4444 111.43 34.9811 111.187 35.4267C110.943 35.8723 110.616 36.2117 110.206 36.449C109.797 36.6849 109.348 36.8036 108.86 36.8036C108.482 36.8036 108.163 36.7567 107.902 36.6615C107.643 36.5677 107.433 36.4476 107.276 36.3014C107.119 36.1552 106.993 36.0048 106.898 35.8461H106.709V39H105.492V38.9972ZM108.504 35.7371C109.039 35.7371 109.477 35.5674 109.815 35.2294C110.153 34.8914 110.322 34.4071 110.322 33.7766V33.6704C110.322 33.0482 110.151 32.5681 109.809 32.2287C109.467 31.8907 109.031 31.721 108.504 31.721C107.984 31.721 107.553 31.8907 107.21 32.2287C106.868 32.5681 106.697 33.0482 106.697 33.6704V33.7766C106.697 34.4071 106.868 34.8914 107.21 35.2294C107.553 35.5688 107.984 35.7371 108.504 35.7371Z" fill="white"/>
<path d="M113.064 36.6353V28.367H114.281V36.6353H113.064Z" fill="white"/>
<path d="M117.895 36.8008C117.477 36.8008 117.106 36.7305 116.779 36.5884C116.452 36.4462 116.193 36.2379 116 35.962C115.807 35.6861 115.71 35.3522 115.71 34.9576C115.71 34.5561 115.807 34.2236 116 33.9587C116.193 33.6952 116.456 33.4965 116.792 33.3627C117.127 33.2289 117.506 33.1613 117.931 33.1613H119.703V32.7833C119.703 32.4453 119.601 32.1735 119.395 31.9679C119.189 31.7637 118.875 31.6602 118.45 31.6602C118.032 31.6602 117.713 31.7582 117.494 31.9555C117.273 32.1528 117.128 32.408 117.057 32.7239L115.922 32.3583C116.016 32.0438 116.168 31.7582 116.378 31.5016C116.586 31.2463 116.863 31.0394 117.211 30.8807C117.557 30.7234 117.975 30.6448 118.464 30.6448C119.22 30.6448 119.814 30.838 120.248 31.2243C120.681 31.6106 120.897 32.1569 120.897 32.866V35.2639C120.897 35.4998 121.008 35.6185 121.229 35.6185H121.725V36.6339H120.816C120.54 36.6339 120.315 36.5635 120.143 36.4214C119.969 36.2793 119.883 36.0862 119.883 35.842V35.8061H119.707C119.643 35.9247 119.55 36.0627 119.424 36.22C119.298 36.3773 119.112 36.5138 118.869 36.627C118.62 36.7429 118.297 36.8008 117.895 36.8008ZM118.072 35.7964C118.56 35.7964 118.954 35.6571 119.253 35.377C119.552 35.0969 119.701 34.7134 119.701 34.225V34.1064H118C117.677 34.1064 117.418 34.1753 117.221 34.3133C117.023 34.4513 116.925 34.6541 116.925 34.9217C116.925 35.1894 117.028 35.4018 117.233 35.5591C117.439 35.7178 117.719 35.7964 118.072 35.7964Z" fill="white"/>
<path d="M124.688 36.6353C124.333 36.6353 124.052 36.5291 123.843 36.3166C123.635 36.1041 123.53 35.8199 123.53 35.4653V31.8382H121.924V30.8104H123.53V28.8844H124.747V30.8104H126.484V31.8382H124.747V35.2515C124.747 35.4874 124.857 35.6061 125.078 35.6061H126.295V36.6339H124.688V36.6353Z" fill="white"/>
<path d="M128.644 36.6353V31.8396H127.014V30.8118H128.644V29.5356C128.644 29.181 128.751 28.8982 128.963 28.6844C129.176 28.4705 129.46 28.3657 129.813 28.3657H131.313V29.3935H130.202C129.973 29.3935 129.86 29.5122 129.86 29.7481V30.8118H131.538V31.8396H129.86V36.6353H128.644Z" fill="white"/>
<path d="M135.272 36.8008C134.69 36.8008 134.171 36.6808 133.718 36.4407C133.266 36.2007 132.909 35.8558 132.649 35.4074C132.39 34.959 132.259 34.4265 132.259 33.8125V33.6345C132.259 33.0206 132.388 32.4908 132.649 32.0452C132.909 31.6009 133.266 31.256 133.718 31.0118C134.171 30.7676 134.688 30.6462 135.272 30.6462C135.854 30.6462 136.374 30.769 136.831 31.0118C137.288 31.256 137.646 31.6009 137.906 32.0452C138.165 32.4908 138.296 33.0192 138.296 33.6345V33.8125C138.296 34.4265 138.166 34.9576 137.906 35.4074C137.646 35.8558 137.288 36.2007 136.831 36.4407C136.374 36.6808 135.854 36.8008 135.272 36.8008ZM135.272 35.7137C135.807 35.7137 136.243 35.5426 136.577 35.2004C136.911 34.8583 137.079 34.3837 137.079 33.7766V33.6704C137.079 33.0647 136.914 32.5901 136.583 32.2466C136.251 31.9045 135.816 31.7334 135.272 31.7334C134.745 31.7334 134.313 31.9045 133.978 32.2466C133.643 32.5888 133.476 33.0634 133.476 33.6704V33.7766C133.476 34.3837 133.643 34.8569 133.978 35.2004C134.313 35.5426 134.744 35.7137 135.272 35.7137Z" fill="white"/>
<path d="M139.807 36.6353V30.8118H141V31.4974H141.189C141.284 31.2532 141.435 31.0739 141.645 30.9594C141.853 30.8449 142.111 30.7883 142.419 30.7883H143.115V31.8865H142.372C141.978 31.8865 141.656 31.9955 141.403 32.2107C141.151 32.4273 141.025 32.7598 141.025 33.2096V36.6353H139.807Z" fill="white"/>
<path d="M144.379 36.6353V30.8118H145.573V31.4975H145.762C145.872 31.2933 146.049 31.1112 146.293 30.9539C146.537 30.7966 146.868 30.718 147.285 30.718C147.718 30.718 148.066 30.8063 148.33 30.9842C148.594 31.1608 148.793 31.3885 148.926 31.663H149.116C149.249 31.3954 149.444 31.1705 149.7 30.9897C149.956 30.809 150.321 30.718 150.793 30.718C151.171 30.718 151.506 30.7952 151.798 30.9484C152.089 31.1015 152.32 31.3305 152.494 31.634C152.667 31.9376 152.754 32.3128 152.754 32.7626V36.6367H151.537V32.8564C151.537 32.5018 151.44 32.2287 151.247 32.0355C151.054 31.8424 150.781 31.7458 150.426 31.7458C150.048 31.7458 149.745 31.8686 149.517 32.1114C149.288 32.3556 149.175 32.706 149.175 33.1627V36.6353H147.958V32.855C147.958 32.5005 147.861 32.2273 147.668 32.0341C147.475 31.841 147.202 31.7444 146.847 31.7444C146.469 31.7444 146.166 31.8672 145.938 32.11C145.709 32.3542 145.596 32.7047 145.596 33.1613V36.6339H144.379V36.6353Z" fill="white"/>
</svg>
