<svg width="161" height="39" viewBox="0 0 161 39" fill="none" xmlns="http://www.w3.org/2000/svg">
<path d="M11.8144 3.06885C12.2181 5.14354 12.4199 6.74683 12.4199 7.564C12.4199 9.10381 11.8726 10.079 11.0084 10.079C10.1726 10.079 9.62537 9.10516 9.62537 7.564C9.62537 6.74683 9.82719 5.14354 10.2308 3.06885H0C0.864228 8.41225 0.864228 14.6998 0 21.9288H10.2296C9.85443 18.9424 9.59566 16.7421 9.59566 15.6426C9.59566 14.1028 10.1429 13.1276 11.0071 13.1276C11.8714 13.1276 12.4484 14.1014 12.4484 15.6426C12.4484 16.7434 12.2465 18.9437 11.8144 21.9288H22.044C21.1798 14.6984 21.1798 8.41225 22.044 3.06885H11.8144Z" fill="#FFB84C"/>
<path d="M35.1012 5.09894L35.1297 5.38124C35.5903 8.33659 35.7351 11.165 35.7351 12.9884C35.7351 14.6539 34.9279 15.1577 34.3237 15.1577C33.6612 15.1577 32.9691 14.6552 32.9691 13.3031C32.9691 11.6377 33.1709 8.77692 33.6315 5.09894H23.6904C24.2959 8.21097 23.9207 10.7571 23.9207 14.6863C23.9207 18.6155 25.534 21.2872 28.9637 21.2872C31.5861 21.2872 33.1994 20.0297 34.0921 18.113C34.3224 17.6106 34.6679 17.2958 35.0145 17.2958C35.3897 17.2958 35.6485 17.6727 35.6485 18.2386C35.6485 20.7212 32.8243 23.4254 29.0504 23.4254C28.128 23.4254 27.2353 23.2997 26.8031 23.1741V23.3632C27.6958 25.1867 30.8085 26.79 34.1503 26.79C40.2296 26.79 44.8987 23.6779 44.8987 16.7312C44.8987 12.771 44.3514 9.28073 45.0423 5.10029H35.1012V5.09894Z" fill="#FFB84C"/>
<path d="M63.2016 7.15609C60.292 7.15609 58.8793 9.19972 57.9284 11.1164C57.6696 11.6188 57.3811 11.9335 57.0357 11.9335C56.6605 11.9335 56.4017 11.5567 56.4017 10.9908C56.4017 8.75938 56.6035 5.0814 56.8054 3.06885H46.6909C47.3533 9.88993 47.4685 17.6227 46.9794 24.1291H56.4302C56.2569 22.9027 56.1132 21.1737 56.1132 20.4201C56.1132 19.9797 56.3151 19.6974 56.6605 19.6974C57.0059 19.6974 57.2362 19.9797 57.4381 20.4835C58.2156 22.4015 60.0307 24.7585 63.2301 24.7585C67.4943 24.7585 70.2034 21.1116 70.2034 15.6115C70.2034 10.4248 67.4658 7.15609 63.2016 7.15609ZM58.1859 18.294C57.0951 18.294 56.3807 17.5147 56.3807 16.3247C56.3807 14.5607 57.6968 12.9196 59.3522 12.9196C60.4802 12.9196 61.233 13.7408 61.233 14.9713C61.233 16.6948 59.8784 18.294 58.1859 18.294Z" fill="#FFB84C"/>
<path d="M102.749 15.6115C102.749 21.113 105.458 24.7585 109.722 24.7585C112.92 24.7585 114.736 22.4015 115.514 20.4835C115.716 19.9811 115.946 19.6974 116.292 19.6974C116.637 19.6974 116.839 19.9797 116.839 20.4201C116.839 21.1751 116.696 22.904 116.522 24.1291H125.973C125.483 17.6227 125.598 9.88993 126.261 3.06885H116.147C116.349 5.08005 116.551 8.75803 116.551 10.9908C116.551 11.5567 116.292 11.9335 115.917 11.9335C115.571 11.9335 115.283 11.6188 115.024 11.1164C114.073 9.19836 112.662 7.15609 109.751 7.15609C105.487 7.15609 102.749 10.4248 102.749 15.6115ZM111.719 14.9713C111.719 13.7408 112.472 12.9196 113.6 12.9196C115.256 12.9196 116.572 14.5607 116.572 16.3247C116.572 17.5147 115.857 18.294 114.766 18.294C113.074 18.294 111.719 16.6948 111.719 14.9713Z" fill="#FFB84C"/>
<path d="M82.9152 10.6612C82.7715 11.2271 82.5115 11.4784 82.1661 11.4784C81.7909 11.4784 81.5322 11.1015 81.5322 10.5356C81.5322 9.87507 81.734 8.39739 81.9358 7.32898H71.8511C72.5135 12.7669 72.6286 18.2373 72.1396 23.6753H82.0807C81.5904 20.5943 81.4467 17.6714 81.4467 15.6602C81.4467 14.7484 81.9655 14.246 82.571 14.246C84.3861 14.246 86.5182 16.1005 89.5157 16.1005V6.69955C85.1624 6.69955 83.6061 7.70583 82.9152 10.6612Z" fill="#FFB84C"/>
<path d="M96.2895 5.50147C98.278 5.50147 99.5162 4.33851 99.5162 2.86083C99.5174 1.10086 98.1629 3.05176e-05 96.2895 3.05176e-05C94.4459 3.05176e-05 93.0332 1.10086 93.0332 2.86083C93.0344 4.33851 94.3308 5.50147 96.2895 5.50147Z" fill="#FFB84C"/>
<path d="M91.1611 7.77066C91.7369 13.2086 91.7369 18.679 91.1611 24.1169H101.102C100.526 18.679 100.526 13.2086 101.102 7.77066H91.1611Z" fill="#FFB84C"/>
<path d="M127.909 3.19446C128.485 8.75803 128.485 17.7483 127.909 24.2547H137.85C137.275 17.7483 137.275 8.75803 137.85 3.19446H127.909Z" fill="#FFB84C"/>
<path d="M160.849 5.09894H150.908L150.936 5.38124C151.397 8.33659 151.542 11.165 151.542 12.9884C151.542 14.6539 150.735 15.1577 150.13 15.1577C149.468 15.1577 148.776 14.6552 148.776 13.3031C148.776 11.6377 148.978 8.77692 149.438 5.09894H139.497C140.103 8.21097 139.727 10.7571 139.727 14.6863C139.727 18.6155 141.341 21.2872 144.77 21.2872C147.393 21.2872 149.006 20.0297 149.899 18.113C150.129 17.6106 150.474 17.2958 150.821 17.2958C151.196 17.2958 151.455 17.6727 151.455 18.2386C151.455 20.7212 148.631 23.4254 144.857 23.4254C143.935 23.4254 143.042 23.2997 142.61 23.1741V23.3632C143.502 25.1867 146.615 26.79 149.957 26.79C156.036 26.79 160.705 23.6779 160.705 16.7312C160.705 12.7683 160.158 9.27938 160.849 5.09894Z" fill="#FFB84C"/>
<path d="M1.16185 38.1792V37.1378H4.07769C4.2758 37.1378 4.37485 37.0216 4.37485 36.7906V35.0334H4.20398C4.14084 35.1874 4.04303 35.3359 3.91302 35.4791C3.78178 35.6223 3.6072 35.7398 3.38804 35.8316C3.16889 35.9235 2.89278 35.9708 2.56096 35.9708C2.16475 35.9708 1.81188 35.8749 1.5011 35.6817C1.19033 35.4886 0.946414 35.2157 0.769358 34.8605C0.592303 34.5066 0.504395 34.0852 0.504395 33.6003V30.1654H1.59644V33.5071C1.59644 34.0001 1.70911 34.3648 1.9357 34.5998C2.16228 34.8348 2.47677 34.9523 2.87916 34.9523C3.3249 34.9523 3.68272 34.7903 3.95512 34.4661C4.22751 34.1419 4.36371 33.6719 4.36371 33.0546V30.1627H5.45575V37.0324C5.45575 37.3796 5.36165 37.6565 5.17469 37.8658C4.98773 38.0738 4.73144 38.1778 4.4058 38.1778H1.16185V38.1792Z" fill="#1E1E1E"/>
<path d="M9.51418 36.0288C8.99044 36.0288 8.52613 35.9113 8.12002 35.6763C7.71391 35.4413 7.39447 35.1036 7.16046 34.6646C6.92768 34.2256 6.81006 33.7043 6.81006 33.1032V32.929C6.81006 32.3279 6.92644 31.8092 7.16046 31.3729C7.39323 30.938 7.71391 30.6003 8.12002 30.3613C8.52613 30.1222 8.99044 30.0033 9.51418 30.0033C10.0367 30.0033 10.5035 30.1235 10.9133 30.3613C11.3231 30.6003 11.645 30.938 11.8778 31.3729C12.1106 31.8092 12.2282 32.3265 12.2282 32.929V33.1032C12.2282 33.7043 12.1118 34.2243 11.8778 34.6646C11.645 35.1036 11.3231 35.4413 10.9133 35.6763C10.5047 35.9113 10.0379 36.0288 9.51418 36.0288ZM9.51418 34.9645C9.99458 34.9645 10.3846 34.797 10.6855 34.462C10.9863 34.127 11.1362 33.6624 11.1362 33.0681V32.9641C11.1362 32.3711 10.9876 31.9065 10.6904 31.5701C10.3933 31.2352 10.0008 31.0677 9.51418 31.0677C9.0412 31.0677 8.65366 31.2352 8.35279 31.5701C8.05192 31.9051 7.90211 32.3698 7.90211 32.9641V33.0681C7.90211 33.6624 8.05192 34.1257 8.35279 34.462C8.65366 34.797 9.0412 34.9645 9.51418 34.9645Z" fill="#1E1E1E"/>
<path d="M15.5888 35.9708C15.1926 35.9708 14.8397 35.8749 14.5289 35.6817C14.2182 35.4886 13.9742 35.2157 13.7972 34.8605C13.6201 34.5066 13.5322 34.0825 13.5322 33.5881V30.1654H14.6243V33.5071C14.6243 34.0001 14.7369 34.3648 14.9635 34.5998C15.1901 34.8348 15.5046 34.9523 15.907 34.9523C16.3527 34.9523 16.7106 34.7889 16.9829 34.4607C17.2553 34.1338 17.3915 33.661 17.3915 33.0438V30.1641H18.4836V35.8654H17.4126V35.0091H17.243C17.1439 35.24 16.9669 35.4588 16.713 35.6628C16.4592 35.8681 16.0841 35.9708 15.5888 35.9708Z" fill="#1E1E1E"/>
<path d="M20.0942 35.8667V30.1654H21.1652V30.8367H21.3349C21.4203 30.5976 21.5553 30.422 21.7435 30.3099C21.9304 30.1978 22.1619 30.1424 22.4381 30.1424H23.0633V31.2176H22.396C22.0431 31.2176 21.7534 31.3243 21.5268 31.535C21.3002 31.7471 21.1875 32.0726 21.1875 32.5129V35.8667H20.0942Z" fill="#1E1E1E"/>
<path d="M26.9004 35.8666V27.7719H27.9924V30.9757H28.1621C28.2326 30.8299 28.3329 30.6867 28.4642 30.5476C28.5954 30.4084 28.7675 30.295 28.9842 30.2058C29.1996 30.1167 29.4733 30.0721 29.8063 30.0721C30.2025 30.0721 30.5542 30.168 30.8612 30.3612C31.1683 30.5543 31.411 30.8258 31.588 31.177C31.7651 31.5282 31.853 31.9496 31.853 32.444V35.8666H30.7609V32.5358C30.7609 32.0428 30.6483 31.6781 30.4217 31.4431C30.1951 31.2081 29.8843 31.0905 29.4894 31.0905C29.0374 31.0905 28.6747 31.2526 28.4023 31.5768C28.1299 31.901 27.9937 32.371 27.9937 32.9883V35.868H26.9004V35.8666Z" fill="#1E1E1E"/>
<path d="M33.9394 38.1792V37.1378H36.8553C37.0534 37.1378 37.1524 37.0216 37.1524 36.7906V35.0334H36.9828C36.9196 35.1874 36.8218 35.3359 36.6918 35.4791C36.5606 35.6223 36.386 35.7398 36.1668 35.8316C35.9477 35.9235 35.6716 35.9708 35.3398 35.9708C34.9436 35.9708 34.5907 35.8749 34.2799 35.6817C33.9691 35.4886 33.7252 35.2157 33.5482 34.8605C33.3711 34.5066 33.2832 34.0852 33.2832 33.6003V30.1654H34.3752V33.5071C34.3752 34.0001 34.4879 34.3648 34.7145 34.5998C34.9411 34.8348 35.2556 34.9523 35.658 34.9523C36.1037 34.9523 36.4615 34.7903 36.7339 34.4661C37.0063 34.1419 37.1425 33.6719 37.1425 33.0546V30.1627H38.2346V37.0324C38.2346 37.3796 38.1405 37.6565 37.9535 37.8658C37.7665 38.0738 37.5102 38.1778 37.1846 38.1778H33.9394V38.1792Z" fill="#1E1E1E"/>
<path d="M42.8653 36.0288C42.3564 36.0288 41.9664 35.9289 41.694 35.7276C41.4216 35.5277 41.2186 35.3035 41.0849 35.0563H40.9152V35.8654H39.8442V27.7706H40.9363V30.9394H41.1059C41.1901 30.7854 41.304 30.6368 41.4452 30.4936C41.5863 30.3505 41.7733 30.2329 42.0073 30.1411C42.2401 30.0479 42.5273 30.002 42.8666 30.002C43.3049 30.002 43.7073 30.1181 44.075 30.3491C44.4427 30.5801 44.7362 30.9164 44.9553 31.3554C45.1745 31.7944 45.2834 32.3198 45.2834 32.9276V33.1018C45.2834 33.7191 45.172 34.2445 44.9491 34.6808C44.7263 35.1171 44.4328 35.4494 44.0688 35.6817C43.7048 35.9127 43.3036 36.0288 42.8653 36.0288ZM42.5484 34.9874C43.0213 34.9874 43.4126 34.8213 43.7196 34.4904C44.0267 34.1595 44.1802 33.6854 44.1802 33.0681V32.9641C44.1802 32.3549 44.0279 31.8849 43.7246 31.5526C43.42 31.2217 43.0288 31.0555 42.5484 31.0555C42.0816 31.0555 41.6953 31.2217 41.387 31.5526C41.0799 31.8849 40.9264 32.3549 40.9264 32.9641V33.0681C40.9264 33.6854 41.0799 34.1595 41.387 34.4904C41.694 34.8226 42.0816 34.9874 42.5484 34.9874Z" fill="#1E1E1E"/>
<path d="M46.6387 35.8667V30.1654H47.7097V30.8367H47.8793C47.9647 30.5976 48.0997 30.422 48.2879 30.3099C48.4748 30.1978 48.7064 30.1424 48.9825 30.1424H49.6078V31.2176H48.9404C48.5875 31.2176 48.2978 31.3243 48.0712 31.535C47.8446 31.7471 47.732 32.0726 47.732 32.5129V35.8667H46.6387Z" fill="#1E1E1E"/>
<path d="M51.2931 29.39C51.0813 29.39 50.903 29.3144 50.7582 29.1644C50.6133 29.0145 50.5415 28.82 50.5415 28.5809C50.5415 28.3419 50.6133 28.1473 50.7582 27.9974C50.903 27.8475 51.0813 27.7719 51.2931 27.7719C51.5122 27.7719 51.6917 27.8475 51.8341 27.9974C51.9753 28.1473 52.0459 28.3419 52.0459 28.5809C52.0459 28.82 51.9753 29.0145 51.8341 29.1644C51.693 29.3157 51.5122 29.39 51.2931 29.39ZM50.7421 35.8666V30.1653H51.8341V35.8666H50.7421Z" fill="#1E1E1E"/>
<path d="M55.618 36.0288C55.1872 36.0288 54.7872 35.9127 54.4207 35.6817C54.053 35.4507 53.7583 35.1171 53.5355 34.6808C53.3126 34.2459 53.2012 33.7191 53.2012 33.1018V32.9276C53.2012 32.3184 53.3101 31.7944 53.5293 31.3554C53.7484 30.9164 54.0419 30.5801 54.4096 30.3491C54.7773 30.1181 55.1797 30.002 55.618 30.002C55.9573 30.002 56.2421 30.0479 56.4711 30.1411C56.7002 30.2329 56.8896 30.3518 57.0382 30.4936C57.1868 30.6368 57.2994 30.7854 57.3774 30.9394H57.5471V27.7706H58.6391V35.8654H57.5681V35.0563H57.3985C57.2648 35.3035 57.0605 35.5264 56.7893 35.7276C56.5182 35.9289 56.1282 36.0288 55.618 36.0288ZM55.9263 34.9874C56.3993 34.9874 56.7906 34.8213 57.0976 34.4904C57.4047 34.1595 57.5582 33.6854 57.5582 33.0681V32.9641C57.5582 32.3549 57.4059 31.8849 57.1026 31.5526C56.798 31.2217 56.4067 31.0555 55.9263 31.0555C55.4596 31.0555 55.0733 31.2217 54.765 31.5526C54.4579 31.8849 54.3044 32.3549 54.3044 32.9641V33.0681C54.3044 33.6854 54.4579 34.1595 54.765 34.4904C55.0733 34.8226 55.4596 34.9874 55.9263 34.9874Z" fill="#1E1E1E"/>
<path d="M65.3501 36.0288C64.8202 36.0288 64.3571 35.9073 63.9609 35.6642C63.5647 35.421 63.2564 35.0779 63.0335 34.6349C62.8106 34.1919 62.6992 33.6773 62.6992 33.0911V32.9519C62.6992 32.3576 62.8082 31.8403 63.0273 31.3959C63.2465 30.9529 63.5523 30.6098 63.9448 30.3667C64.3373 30.1235 64.7905 30.002 65.3068 30.002C65.8082 30.002 66.249 30.1235 66.6266 30.3667C67.0043 30.6098 67.3002 30.9475 67.5119 31.3784C67.7236 31.8106 67.8301 32.3157 67.8301 32.8938V33.345H63.8123C63.8259 33.8461 63.9807 34.2459 64.2729 34.5417C64.5663 34.8389 64.9316 34.9874 65.3699 34.9874C65.7797 34.9874 66.0893 34.8875 66.2973 34.6862C66.5053 34.4863 66.6662 34.254 66.7802 33.992L67.6815 34.5012C67.5825 34.7173 67.4388 34.9442 67.2519 35.1833C67.0649 35.4224 66.8185 35.6223 66.5152 35.7844C66.2131 35.9478 65.8243 36.0288 65.3501 36.0288ZM63.8235 32.4319H66.717C66.6885 31.9997 66.5474 31.6634 66.2936 31.4202C66.0397 31.1771 65.7067 31.0555 65.2969 31.0555C64.887 31.0555 64.5527 31.1771 64.2952 31.4202C64.0377 31.6634 63.8804 32.001 63.8235 32.4319Z" fill="#1E1E1E"/>
<path d="M70.174 35.8667L68.4146 30.1654H69.5697L70.9589 34.9874H71.1286L72.5178 30.1654H73.673L71.9136 35.8667H70.174Z" fill="#1E1E1E"/>
<path d="M76.9473 36.0288C76.4173 36.0288 75.9543 35.9073 75.5581 35.6642C75.1619 35.421 74.8536 35.0779 74.6307 34.6349C74.4078 34.1919 74.2964 33.6773 74.2964 33.0911V32.9519C74.2964 32.3576 74.4053 31.8403 74.6245 31.3959C74.8436 30.9529 75.1495 30.6098 75.542 30.3667C75.9345 30.1235 76.3876 30.002 76.9039 30.002C77.4054 30.002 77.8462 30.1235 78.2238 30.3667C78.6014 30.6098 78.8973 30.9475 79.1091 31.3784C79.3208 31.8106 79.4273 32.3157 79.4273 32.8938V33.345H75.4095C75.4231 33.8461 75.5779 34.2459 75.8701 34.5417C76.1635 34.8389 76.5288 34.9874 76.9671 34.9874C77.3769 34.9874 77.6864 34.8875 77.8944 34.6862C78.1025 34.4863 78.2634 34.254 78.3773 33.992L79.2787 34.5012C79.1796 34.7173 79.036 34.9442 78.8491 35.1833C78.6621 35.4224 78.4157 35.6223 78.1124 35.7844C77.8103 35.9478 77.4202 36.0288 76.9473 36.0288ZM75.4206 32.4319H78.3142C78.2857 31.9997 78.1446 31.6634 77.8907 31.4202C77.6369 31.1771 77.3038 31.0555 76.894 31.0555C76.4842 31.0555 76.1499 31.1771 75.8924 31.4202C75.6348 31.6634 75.4776 32.001 75.4206 32.4319Z" fill="#1E1E1E"/>
<path d="M80.7427 35.8667V30.1654H81.8137V31.0217H81.9833C82.0824 30.7908 82.2594 30.5747 82.5132 30.3748C82.767 30.1749 83.1459 30.0735 83.6474 30.0735C84.0436 30.0735 84.3952 30.1694 84.7023 30.3626C85.0093 30.5558 85.252 30.8272 85.4291 31.1784C85.6061 31.5296 85.694 31.951 85.694 32.4454V35.8681H84.602V32.5372C84.602 32.0442 84.4893 31.6795 84.2627 31.4445C84.0362 31.2095 83.7254 31.092 83.3292 31.092C82.8772 31.092 82.5145 31.2541 82.2421 31.5782C81.9697 31.9024 81.8335 32.3725 81.8335 32.9897V35.8694H80.7427V35.8667Z" fill="#1E1E1E"/>
<path d="M89.0757 35.8668C88.7575 35.8668 88.5049 35.7627 88.318 35.5547C88.131 35.3467 88.0369 35.0685 88.0369 34.7214V31.1703H86.5957V30.1641H88.0369V28.2785H89.129V30.1641H90.6878V31.1703H89.129V34.512C89.129 34.743 89.228 34.8591 89.4261 34.8591H90.5182V35.8654H89.0757V35.8668Z" fill="#1E1E1E"/>
<path d="M94.6733 38.1792V30.1654H95.7443V30.9866H95.914C96.0477 30.7327 96.252 30.5044 96.5231 30.3045C96.7955 30.1046 97.1855 30.0033 97.6944 30.0033C98.1327 30.0033 98.5339 30.1195 98.8979 30.3505C99.2619 30.5814 99.5554 30.9151 99.7782 31.3513C100.001 31.7876 100.113 32.313 100.113 32.9303V33.1046C100.113 33.7218 100.002 34.2473 99.7844 34.6835C99.5653 35.1198 99.2718 35.4521 98.9041 35.6844C98.5364 35.9154 98.134 36.0315 97.6957 36.0315C97.3564 36.0315 97.0704 35.9856 96.8364 35.8924C96.6036 35.8006 96.4154 35.6831 96.2743 35.5399C96.1331 35.3967 96.0204 35.2495 95.935 35.0941H95.7654V38.1819H94.6733V38.1792ZM97.3762 34.9874C97.8566 34.9874 98.2491 34.8213 98.5525 34.4904C98.8558 34.1595 99.0081 33.6854 99.0081 33.0681V32.9641C99.0081 32.3549 98.8546 31.8849 98.5475 31.5526C98.2404 31.2217 97.8492 31.0555 97.3762 31.0555C96.9094 31.0555 96.5231 31.2217 96.2148 31.5526C95.9078 31.8849 95.7542 32.3549 95.7542 32.9641V33.0681C95.7542 33.6854 95.9078 34.1595 96.2148 34.4904C96.5231 34.8227 96.9094 34.9874 97.3762 34.9874Z" fill="#1E1E1E"/>
<path d="M101.468 35.8666V27.7719H102.56V35.8666H101.468Z" fill="#1E1E1E"/>
<path d="M105.804 36.0288C105.429 36.0288 105.096 35.96 104.802 35.8208C104.509 35.6817 104.276 35.4778 104.103 35.2076C103.929 34.9375 103.843 34.6106 103.843 34.2243C103.843 33.8312 103.929 33.5057 104.103 33.2464C104.276 32.9884 104.513 32.7939 104.813 32.6629C105.114 32.5319 105.455 32.4657 105.836 32.4657H107.426V32.0956C107.426 31.7647 107.334 31.4986 107.15 31.2973C106.965 31.0974 106.683 30.9961 106.302 30.9961C105.927 30.9961 105.641 31.092 105.444 31.2852C105.246 31.4783 105.116 31.7282 105.051 32.0375L104.033 31.6796C104.118 31.3716 104.254 31.092 104.442 30.8408C104.629 30.5909 104.878 30.3883 105.19 30.233C105.501 30.079 105.876 30.002 106.314 30.002C106.993 30.002 107.526 30.1911 107.915 30.5693C108.304 30.9475 108.498 31.4824 108.498 32.1766V34.5242C108.498 34.7551 108.597 34.8713 108.795 34.8713H109.241V35.8654H108.425C108.178 35.8654 107.976 35.7965 107.821 35.6574C107.665 35.5183 107.588 35.3292 107.588 35.0901V35.055H107.43C107.373 35.1711 107.289 35.3062 107.176 35.4602C107.063 35.6142 106.896 35.7479 106.678 35.8587C106.454 35.9721 106.164 36.0288 105.804 36.0288ZM105.962 35.0455C106.401 35.0455 106.754 34.9091 107.022 34.6349C107.291 34.3607 107.425 33.9852 107.425 33.5071V33.3909H105.898C105.608 33.3909 105.376 33.4584 105.199 33.5935C105.021 33.7286 104.934 33.9271 104.934 34.1892C104.934 34.4512 105.025 34.6592 105.21 34.8132C105.394 34.9685 105.646 35.0455 105.962 35.0455Z" fill="#1E1E1E"/>
<path d="M111.899 35.8668C111.581 35.8668 111.329 35.7627 111.142 35.5547C110.955 35.3467 110.861 35.0685 110.861 34.7214V31.1703H109.419V30.1641H110.861V28.2785H111.953V30.1641H113.512V31.1703H111.953V34.512C111.953 34.743 112.052 34.8591 112.25 34.8591H113.342V35.8654H111.899V35.8668Z" fill="#1E1E1E"/>
<path d="M115.45 35.8667V31.1717H113.987V30.1654H115.45V28.916C115.45 28.5689 115.546 28.292 115.736 28.0826C115.927 27.8733 116.182 27.7706 116.499 27.7706H117.845V28.7769H116.848C116.643 28.7769 116.541 28.893 116.541 29.124V30.1654H118.047V31.1717H116.541V35.8667H115.45Z" fill="#1E1E1E"/>
<path d="M121.398 36.0288C120.876 36.0288 120.41 35.9113 120.004 35.6763C119.598 35.4413 119.277 35.1036 119.045 34.6646C118.812 34.2256 118.694 33.7043 118.694 33.1032V32.929C118.694 32.3279 118.811 31.8092 119.045 31.3729C119.277 30.938 119.598 30.6003 120.004 30.3613C120.41 30.1222 120.875 30.0033 121.398 30.0033C121.921 30.0033 122.388 30.1235 122.798 30.3613C123.207 30.6003 123.529 30.938 123.762 31.3729C123.995 31.8092 124.112 32.3265 124.112 32.929V33.1032C124.112 33.7043 123.996 34.2243 123.762 34.6646C123.529 35.1036 123.207 35.4413 122.798 35.6763C122.388 35.9113 121.921 36.0288 121.398 36.0288ZM121.398 34.9645C121.879 34.9645 122.27 34.797 122.57 34.462C122.869 34.127 123.02 33.6624 123.02 33.0681V32.9641C123.02 32.3711 122.872 31.9065 122.575 31.5701C122.278 31.2352 121.886 31.0677 121.398 31.0677C120.925 31.0677 120.538 31.2352 120.237 31.5701C119.936 31.9051 119.786 32.3698 119.786 32.9641V33.0681C119.786 33.6624 119.936 34.1257 120.237 34.462C120.538 34.797 120.924 34.9645 121.398 34.9645Z" fill="#1E1E1E"/>
<path d="M125.468 35.8667V30.1654H126.539V30.8367H126.709C126.794 30.5976 126.929 30.422 127.117 30.3099C127.304 30.1978 127.536 30.1424 127.812 30.1424H128.437V31.2176H127.77C127.417 31.2176 127.127 31.3243 126.901 31.535C126.674 31.7471 126.562 32.0726 126.562 32.5129V35.8667H125.468Z" fill="#1E1E1E"/>
<path d="M129.571 35.8667V30.1654H130.642V30.8367H130.812C130.911 30.6368 131.069 30.4585 131.289 30.3045C131.508 30.1505 131.805 30.0735 132.179 30.0735C132.568 30.0735 132.88 30.16 133.117 30.3342C133.354 30.5071 133.532 30.73 133.652 30.9988H133.822C133.942 30.7367 134.117 30.5166 134.347 30.3396C134.576 30.1627 134.904 30.0735 135.327 30.0735C135.667 30.0735 135.968 30.1492 136.229 30.2991C136.49 30.449 136.698 30.6733 136.854 30.9704C137.009 31.2676 137.087 31.635 137.087 32.0753V35.8681H135.995V32.1671C135.995 31.82 135.908 31.5526 135.735 31.3635C135.561 31.1744 135.316 31.0798 134.998 31.0798C134.659 31.0798 134.386 31.2 134.182 31.4378C133.977 31.6768 133.875 32.0199 133.875 32.467V35.8667H132.783V32.1658C132.783 31.8187 132.696 31.5512 132.523 31.3621C132.35 31.173 132.105 31.0785 131.786 31.0785C131.447 31.0785 131.175 31.1987 130.97 31.4364C130.765 31.6755 130.663 32.0186 130.663 32.4657V35.8654H129.571V35.8667Z" fill="#1E1E1E"/>
</svg>
