<svg width="20" height="14" viewBox="0 0 20 14" fill="none" xmlns="http://www.w3.org/2000/svg">
<path fill-rule="evenodd" clip-rule="evenodd" d="M13.7113 7.98877C14.91 8.80252 15.75 9.90502 15.75 11.375V14H19.25V11.375C19.25 9.46752 16.1263 8.33877 13.7113 7.98877Z" fill="white"/>
<path d="M7 7C8.933 7 10.5 5.433 10.5 3.5C10.5 1.567 8.933 0 7 0C5.067 0 3.5 1.567 3.5 3.5C3.5 5.433 5.067 7 7 7Z" fill="white"/>
<path fill-rule="evenodd" clip-rule="evenodd" d="M12.25 7C14.1838 7 15.75 5.43375 15.75 3.5C15.75 1.56625 14.1838 0 12.25 0C11.8388 0 11.4538 0.0874998 11.0863 0.21C11.8125 1.11125 12.25 2.2575 12.25 3.5C12.25 4.7425 11.8125 5.88875 11.0863 6.79C11.4538 6.9125 11.8388 7 12.25 7Z" fill="white"/>
<path fill-rule="evenodd" clip-rule="evenodd" d="M7 7.875C4.66375 7.875 0 9.0475 0 11.375V14H14V11.375C14 9.0475 9.33625 7.875 7 7.875Z" fill="white"/>
</svg>
